<svg width="20" height="20" viewBox="0 0 20 20" fill="none" xmlns="http://www.w3.org/2000/svg">
<path d="M9.75 10C9.75 8.75736 10.7574 7.75 12 7.75C13.2426 7.75 14.25 8.75736 14.25 10C14.25 11.2426 13.2426 12.25 12 12.25C10.7574 12.25 9.75 11.2426 9.75 10Z" fill="#6A707E"/>
<path fill-rule="evenodd" clip-rule="evenodd" d="M1.46447 1.46447C0 2.92893 0 5.28595 0 10C0 14.714 0 17.0711 1.46447 18.5355C2.92893 20 5.28595 20 10 20C14.714 20 17.0711 20 18.5355 18.5355C20 17.0711 20 14.714 20 10C20 5.28595 20 2.92893 18.5355 1.46447C17.0711 0 14.714 0 10 0C5.28595 0 2.92893 0 1.46447 1.46447ZM4.75 5C4.75 4.58579 4.41421 4.25 4 4.25C3.58579 4.25 3.25 4.58579 3.25 5L3.25 15C3.25 15.4142 3.58579 15.75 4 15.75C4.41421 15.75 4.75 15.4142 4.75 15L4.75 5ZM8.53033 5.46967C8.23744 5.17678 7.76256 5.17678 7.46967 5.46967C7.17678 5.76256 7.17678 6.23744 7.46967 6.53033L8.8713 7.93196C8.47866 8.52478 8.25 9.23569 8.25 10C8.25 10.7643 8.47866 11.4752 8.8713 12.068L7.46967 13.4697C7.17678 13.7626 7.17678 14.2374 7.46967 14.5303C7.76256 14.8232 8.23744 14.8232 8.53033 14.5303L9.93196 13.1287C10.5248 13.5213 11.2357 13.75 12 13.75C12.7643 13.75 13.4752 13.5213 14.068 13.1287L15.4697 14.5303C15.7626 14.8232 16.2374 14.8232 16.5303 14.5303C16.8232 14.2374 16.8232 13.7626 16.5303 13.4697L15.1287 12.068C15.5213 11.4752 15.75 10.7643 15.75 10C15.75 9.23569 15.5213 8.52478 15.1287 7.93196L16.5303 6.53033C16.8232 6.23744 16.8232 5.76256 16.5303 5.46967C16.2374 5.17678 15.7626 5.17678 15.4697 5.46967L14.068 6.8713C13.4752 6.47866 12.7643 6.25 12 6.25C11.2357 6.25 10.5248 6.47866 9.93196 6.8713L8.53033 5.46967Z" fill="#6A707E"/>
</svg>
