<svg xmlns="http://www.w3.org/2000/svg" width="17" height="18" viewBox="0 0 17 18" fill="none">
  <g clip-path="url(#clip0_312_12286)">
    <path d="M1.87201 5.24529C1.771 5.00959 1.49803 4.9004 1.26233 5.00141C1.02663 5.10243 0.917444 5.37539 1.01846 5.6111L1.87201 5.24529ZM10.9084 9.836L10.7384 9.40395L10.9084 9.836ZM6.30081 10.0892C6.44067 9.8743 6.3798 9.58668 6.16486 9.44682C5.94992 9.30696 5.6623 9.36783 5.52244 9.58277L6.30081 10.0892ZM4.53845 11.095C4.39859 11.31 4.45946 11.5976 4.6744 11.7375C4.88934 11.8773 5.17696 11.8164 5.31682 11.6015L4.53845 11.095ZM15.8016 5.6111C15.9026 5.37539 15.7934 5.10243 15.5577 5.00141C15.322 4.9004 15.0491 5.00959 14.9481 5.24529L15.8016 5.6111ZM13.2854 8.30384L12.9676 7.96529L13.2854 8.30384ZM14.0018 9.67689C14.1831 9.85822 14.4771 9.85822 14.6584 9.67689C14.8398 9.49556 14.8398 9.20157 14.6584 9.02024L14.0018 9.67689ZM7.94571 12.0447C7.94571 12.3012 8.1536 12.5091 8.41003 12.5091C8.66647 12.5091 8.87435 12.3012 8.87435 12.0447H7.94571ZM11.5032 11.6015C11.6431 11.8164 11.9307 11.8773 12.1457 11.7375C12.3606 11.5976 12.4215 11.31 12.2816 11.095L11.5032 11.6015ZM3.863 8.63217C4.04433 8.45084 4.04433 8.15685 3.863 7.97552C3.68167 7.79419 3.38768 7.79419 3.20635 7.97552L3.863 8.63217ZM2.16163 9.02024C1.9803 9.20157 1.9803 9.49556 2.16163 9.67689C2.34296 9.85822 2.63695 9.85822 2.81828 9.67689L2.16163 9.02024ZM8.41003 9.83923C6.14329 9.83923 4.51676 8.70991 3.43963 7.54992C2.9012 6.97008 2.50657 6.38877 2.24688 5.95247C2.11729 5.73477 2.02202 5.55439 1.95984 5.43003C1.92877 5.36789 1.90601 5.31984 1.89142 5.28824C1.88412 5.27244 1.87887 5.26077 1.87564 5.25351C1.87403 5.24988 1.87292 5.24735 1.87231 5.24597C1.87201 5.24528 1.87184 5.24487 1.87179 5.24476C1.87176 5.2447 1.87177 5.24472 1.87181 5.2448C1.87182 5.24485 1.87188 5.24497 1.87189 5.24499C1.87195 5.24513 1.87201 5.24529 1.44524 5.42819C1.01846 5.6111 1.01854 5.61129 1.01863 5.6115C1.01868 5.6116 1.01878 5.61183 1.01886 5.61203C1.01902 5.61241 1.01922 5.61287 1.01945 5.6134C1.01991 5.61447 1.0205 5.61583 1.02122 5.61748C1.02267 5.62078 1.02463 5.62525 1.02712 5.63085C1.03209 5.64204 1.03917 5.65774 1.04837 5.67765C1.06676 5.71747 1.09366 5.77416 1.12924 5.84533C1.20037 5.98759 1.30643 6.1881 1.4489 6.42746C1.73333 6.90529 2.16577 7.54282 2.75912 8.18182C3.94555 9.45951 5.80142 10.7679 8.41003 10.7679V9.83923ZM10.7384 9.40395C10.0561 9.67251 9.28246 9.83923 8.41003 9.83923V10.7679C9.40412 10.7679 10.2929 10.5773 11.0785 10.2681L10.7384 9.40395ZM5.52244 9.58277L4.53845 11.095L5.31682 11.6015L6.30081 10.0892L5.52244 9.58277ZM15.3748 5.42819C14.9481 5.24529 14.9481 5.24519 14.9481 5.24511C14.9481 5.24509 14.9482 5.24501 14.9482 5.24496C14.9482 5.24488 14.9483 5.24481 14.9483 5.24478C14.9483 5.2447 14.9483 5.24471 14.9483 5.24481C14.9482 5.24502 14.9479 5.24559 14.9475 5.24652C14.9467 5.24838 14.9453 5.25166 14.9432 5.25632C14.939 5.26564 14.9323 5.28046 14.923 5.30036C14.9045 5.34017 14.8756 5.40025 14.8363 5.47731C14.7577 5.63154 14.6374 5.85312 14.4737 6.11581C14.1455 6.64253 13.6475 7.32714 12.9676 7.96529L13.6032 8.64239C14.357 7.93479 14.9038 7.18158 15.2619 6.60691C15.4413 6.31891 15.5745 6.0739 15.6636 5.89922C15.7082 5.81182 15.7418 5.74187 15.7647 5.69276C15.7761 5.6682 15.7849 5.64883 15.7911 5.63508C15.7941 5.62821 15.7965 5.62274 15.7983 5.61872C15.7992 5.61672 15.7999 5.61507 15.8004 5.6138C15.8007 5.61316 15.801 5.61262 15.8011 5.61217C15.8012 5.61194 15.8013 5.61174 15.8014 5.61156C15.8014 5.61147 15.8015 5.61136 15.8015 5.61131C15.8016 5.6112 15.8016 5.6111 15.3748 5.42819ZM12.9676 7.96529C12.3652 8.53075 11.6251 9.05492 10.7384 9.40395L11.0785 10.2681C12.0966 9.86732 12.9341 9.27042 13.6032 8.64239L12.9676 7.96529ZM12.9571 8.63217L14.0018 9.67689L14.6584 9.02024L13.6137 7.97552L12.9571 8.63217ZM7.94571 10.3036V12.0447H8.87435V10.3036H7.94571ZM10.5192 10.0892L11.5032 11.6015L12.2816 11.095L11.2976 9.58277L10.5192 10.0892ZM3.20635 7.97552L2.16163 9.02024L2.81828 9.67689L3.863 8.63217L3.20635 7.97552Z" fill="#1E1E1E"/>
  </g>
  <defs>
    <clipPath id="clip0_312_12286">
      <rect width="16.7155" height="16.7155" fill="white" transform="translate(0.0522766 0.552834)"/>
    </clipPath>
  </defs>
</svg>