<svg width="51" height="51" viewBox="0 0 51 51" fill="none" xmlns="http://www.w3.org/2000/svg">
<path d="M4.25049 25.5C4.25049 15.4827 4.25049 10.474 7.36248 7.36199C10.4745 4.25 15.4831 4.25 25.5005 4.25C35.5178 4.25 40.5265 4.25 43.6385 7.36199C46.7505 10.474 46.7505 15.4827 46.7505 25.5C46.7505 35.5173 46.7505 40.526 43.6385 43.638C40.5265 46.75 35.5178 46.75 25.5005 46.75C15.4831 46.75 10.4745 46.75 7.36248 43.638C4.25049 40.526 4.25049 35.5173 4.25049 25.5Z" stroke=" var(--green)" stroke-width="2.125"/>
<circle cx="34.0005" cy="17" r="4.25" stroke=" var(--green)" stroke-width="2.125"/>
<path d="M4.25049 26.5628L7.97261 23.306C9.90906 21.6116 12.8276 21.7088 14.647 23.5282L23.7627 32.6439C25.2231 34.1042 27.5219 34.3034 29.2116 33.1158L29.8453 32.6705C32.2768 30.9617 35.5665 31.1597 37.7755 33.1478L44.6255 39.3128" stroke=" var(--green)" stroke-width="2.125" stroke-linecap="round"/>
</svg>
