<svg width="31" height="25" viewBox="0 0 31 25" fill="none" xmlns="http://www.w3.org/2000/svg">
<path d="M5.09712 8.97954C2.10423 7.78239 0.607788 7.18381 0.607788 6.43999C0.607788 5.69618 2.10423 5.0976 5.09712 3.90045L9.3297 2.20741C12.3226 1.01026 13.819 0.411682 15.6786 0.411682C17.5381 0.411682 19.0345 1.01026 22.0274 2.20741L26.26 3.90045C29.2529 5.0976 30.7493 5.69618 30.7493 6.43999C30.7493 7.18381 29.2529 7.78239 26.26 8.97954L22.0274 10.6726C19.0345 11.8697 17.5381 12.4683 15.6786 12.4683C13.819 12.4683 12.3226 11.8697 9.3297 10.6726L5.09712 8.97954Z" fill="#08415C"/>
<path fill-rule="evenodd" clip-rule="evenodd" d="M0.607788 6.43999C0.607788 7.18381 2.10423 7.78239 5.09712 8.97954L9.3297 10.6726C12.3226 11.8697 13.819 12.4683 15.6786 12.4683C17.5381 12.4683 19.0345 11.8697 22.0274 10.6726L26.26 8.97954C29.2529 7.78239 30.7493 7.18381 30.7493 6.43999C30.7493 5.69618 29.2529 5.0976 26.26 3.90045L22.0274 2.20741C19.0345 1.01026 17.5381 0.411682 15.6786 0.411682C13.819 0.411682 12.3226 1.01026 9.3297 2.20741L5.09712 3.90045C2.10423 5.0976 0.607788 5.69618 0.607788 6.43999Z" fill="#08415C"/>
<path d="M6.28364 9.4541L5.09712 9.92871C2.10423 11.1259 0.607788 11.7244 0.607788 12.4683C0.607788 13.2121 2.10423 13.8107 5.09712 15.0078L9.3297 16.7008C12.3226 17.898 13.819 18.4966 15.6786 18.4966C17.5381 18.4966 19.0345 17.898 22.0274 16.7008L26.26 15.0078C29.2529 13.8107 30.7493 13.2121 30.7493 12.4683C30.7493 11.7244 29.2529 11.1259 26.26 9.92871L25.0735 9.4541L22.0274 10.6725C19.0345 11.8697 17.5381 12.4683 15.6786 12.4683C13.819 12.4683 12.3226 11.8697 9.3297 10.6725L6.28364 9.4541Z" fill="#CC2936"/>
<path d="M6.28364 15.4825L5.09712 15.9571C2.10423 17.1542 0.607788 17.7528 0.607788 18.4966C0.607788 19.2404 2.10423 19.839 5.09712 21.0362L9.3297 22.7292C12.3226 23.9263 13.819 24.5249 15.6786 24.5249C17.5381 24.5249 19.0345 23.9263 22.0274 22.7292L26.26 21.0362C29.2529 19.839 30.7493 19.2404 30.7493 18.4966C30.7493 17.7528 29.2529 17.1542 26.26 15.9571L25.0735 15.4825L22.0274 16.7009C19.0345 17.898 17.5381 18.4966 15.6786 18.4966C13.819 18.4966 12.3226 17.898 9.3297 16.7009L6.28364 15.4825Z" fill="#6B818C"/>
</svg>
