<svg width="22" height="21" viewBox="0 0 22 21" fill="none" xmlns="http://www.w3.org/2000/svg">
<path fill-rule="evenodd" clip-rule="evenodd" d="M18 7V12.9342C18 13.5933 17.6469 14.2018 17.0746 14.5288C13.3105 16.6797 8.68952 16.6797 4.92538 14.5288C4.35315 14.2018 4 13.5933 4 12.9342V7C4 4.19108 4 2.78661 4.67412 1.77772C4.96596 1.34096 5.34096 0.965956 5.77772 0.674122C6.78661 0 8.19108 0 11 0C13.8089 0 15.2134 0 16.2223 0.674122C16.659 0.965956 17.034 1.34096 17.3259 1.77772C18 2.78661 18 4.19108 18 7ZM8 2.25C7.58579 2.25 7.25 2.58579 7.25 3C7.25 3.41421 7.58579 3.75 8 3.75H14C14.4142 3.75 14.75 3.41421 14.75 3C14.75 2.58579 14.4142 2.25 14 2.25H8Z" fill="#6A707E"/>
<path fill-rule="evenodd" clip-rule="evenodd" d="M2.62731 12.5342C2.88455 12.8589 2.82989 13.3306 2.50523 13.5878C1.93157 14.0424 1.75 14.443 1.75 14.75C1.75 15.0165 1.88413 15.3495 2.29688 15.7337C2.71071 16.1189 3.35043 16.5004 4.20371 16.8364C5.41418 17.313 6.97893 17.6686 8.75 17.8343V17.375C8.75 17.0807 8.9221 16.8136 9.19009 16.692C9.45807 16.5704 9.77241 16.6168 9.99388 16.8106L11.4939 18.1231C11.6566 18.2655 11.75 18.4712 11.75 18.6875C11.75 18.9038 11.6566 19.1095 11.4939 19.2519L9.99388 20.5644C9.77241 20.7582 9.45807 20.8046 9.19009 20.683C8.9221 20.5614 8.75 20.2943 8.75 20V19.3404C6.80576 19.1698 5.04974 18.7816 3.65415 18.2321C2.69779 17.8555 1.87304 17.3885 1.27482 16.8316C0.675511 16.2737 0.25 15.5708 0.25 14.75C0.25 13.7998 0.816665 13.012 1.5737 12.4122C1.89836 12.1549 2.37008 12.2096 2.62731 12.5342ZM19.3727 12.5342C19.6299 12.2096 20.1016 12.1549 20.4263 12.4122C21.1833 13.012 21.75 13.7997 21.75 14.75C21.75 16.1281 20.5819 17.1606 19.2034 17.8514C17.7617 18.5738 15.791 19.0851 13.5756 19.3096C13.1635 19.3514 12.7956 19.0512 12.7538 18.6391C12.7121 18.227 13.0123 17.859 13.4244 17.8173C15.522 17.6047 17.3014 17.1266 18.5314 16.5103C19.8246 15.8623 20.25 15.2066 20.25 14.75C20.25 14.443 20.0684 14.0424 19.4948 13.5878C19.1701 13.3306 19.1155 12.8589 19.3727 12.5342Z" fill="#6A707E"/>
</svg>
