<svg width="20" height="20" viewBox="0 0 20 20" fill="none" xmlns="http://www.w3.org/2000/svg">
<path d="M16.9265 10.5392L17.3579 8.92936C17.8614 7.05012 18.1132 6.1105 17.9236 5.29736C17.7739 4.65531 17.4371 4.07207 16.956 3.6214C16.3466 3.05063 15.4069 2.79886 13.5277 2.29532C11.6485 1.79178 10.7089 1.54001 9.89572 1.72961C9.25367 1.87932 8.67043 2.21605 8.21976 2.69723C7.73107 3.21899 7.47623 3.98281 7.097 5.37118C7.03331 5.60437 6.96611 5.85518 6.8937 6.12542L6.89368 6.12548L6.46231 7.73536C5.95877 9.61459 5.707 10.5542 5.8966 11.3674C6.04631 12.0094 6.38304 12.5926 6.86422 13.0433C7.47362 13.6141 8.41324 13.8659 10.2925 14.3694L10.2925 14.3694C11.9863 14.8233 12.9168 15.0726 13.6793 14.9785C13.7628 14.9682 13.8442 14.9538 13.9245 14.9351C14.5665 14.7854 15.1498 14.4487 15.6004 13.9675C16.1712 13.3581 16.423 12.4185 16.9265 10.5392Z" stroke="#0085FF"/>
<path d="M13.679 14.9784C13.5053 15.5105 13.1997 15.9918 12.789 16.3766C12.1796 16.9473 11.24 17.1991 9.36072 17.7026C7.48149 18.2062 6.54187 18.4579 5.72872 18.2683C5.08667 18.1186 4.50344 17.7819 4.05276 17.3007C3.48199 16.6913 3.23022 15.7517 2.72669 13.8725L2.29532 12.2626C1.79178 10.3834 1.54001 9.44375 1.72961 8.6306C1.87932 7.98856 2.21605 7.40532 2.69723 6.95464C3.30663 6.38387 4.24625 6.13211 6.12548 5.62857C6.48101 5.5333 6.80291 5.44705 7.09668 5.37109" stroke="#0085FF"/>
<path d="M9.81396 8.3335L13.8387 9.41191" stroke="#0085FF" stroke-linecap="round"/>
<path d="M9.1665 10.748L11.5813 11.3951" stroke="#0085FF" stroke-linecap="round"/>
</svg>
