<svg xmlns="http://www.w3.org/2000/svg" width="16" height="16" viewBox="0 0 16 16" fill="none">
<path d="M2.18327 10.1971C1.61665 9.46097 1.33334 9.09291 1.33334 7.99999C1.33334 6.90707 1.61665 6.53901 2.18327 5.80288C3.31465 4.33303 5.21209 2.66666 8.00001 2.66666C10.7879 2.66666 12.6854 4.33303 13.8167 5.80288C14.3834 6.53901 14.6667 6.90707 14.6667 7.99999C14.6667 9.09291 14.3834 9.46097 13.8167 10.1971C12.6854 11.667 10.7879 13.3333 8.00001 13.3333C5.21209 13.3333 3.31465 11.667 2.18327 10.1971Z" stroke="#1E1E1E"/>
<path d="M10 8C10 9.10457 9.10457 10 8 10C6.89543 10 6 9.10457 6 8C6 6.89543 6.89543 6 8 6C9.10457 6 10 6.89543 10 8Z" stroke="#1E1E1E"/>
</svg>