<svg width="21" height="21" viewBox="0 0 21 21" fill="none" xmlns="http://www.w3.org/2000/svg">
<path d="M2.77513 18.2249L3.12868 17.8713H3.12868L2.77513 18.2249ZM18.2249 18.2249L17.8713 17.8713L18.2249 18.2249ZM13.1748 9.9708L13.1082 10.4663L13.1748 9.9708ZM11.0876 9.03747L10.7341 9.39102H10.7341L11.0876 9.03747ZM10.1543 6.95026L10.6498 6.88364L10.1543 6.95026ZM10.0625 4.4581L9.56249 4.45647V4.45806L10.0625 4.4581ZM10.0706 1.978L9.57058 1.97631L9.57058 1.97637L10.0706 1.978ZM19.2127 10.0626L19.7112 10.0229L19.6745 9.56259H19.2127V10.0626ZM10.0888 1.76458L10.5818 1.84754L10.676 1.28811L10.1091 1.26499L10.0888 1.76458ZM12.25 18.75H8.75V19.75H12.25V18.75ZM2.25 12.25V8.75H1.25V12.25H2.25ZM18.75 11.8675V12.25H19.75V11.8675H18.75ZM8.75 18.75C7.08595 18.75 5.88821 18.7489 4.97617 18.6263C4.07852 18.5056 3.53286 18.2755 3.12868 17.8713L2.42157 18.5784C3.04252 19.1994 3.83438 19.4818 4.84292 19.6174C5.83708 19.7511 7.11422 19.75 8.75 19.75V18.75ZM1.25 12.25C1.25 13.8858 1.24894 15.1629 1.3826 16.1571C1.51819 17.1656 1.80063 17.9575 2.42157 18.5784L3.12868 17.8713C2.7245 17.4671 2.49437 16.9215 2.37368 16.0238C2.25106 15.1118 2.25 13.914 2.25 12.25H1.25ZM12.25 19.75C13.8858 19.75 15.1629 19.7511 16.1571 19.6174C17.1656 19.4818 17.9575 19.1994 18.5784 18.5784L17.8713 17.8713C17.4671 18.2755 16.9215 18.5056 16.0238 18.6263C15.1118 18.7489 13.914 18.75 12.25 18.75V19.75ZM18.75 12.25C18.75 13.914 18.7489 15.1118 18.6263 16.0238C18.5056 16.9215 18.2755 17.4671 17.8713 17.8713L18.5784 18.5784C19.1994 17.9575 19.4818 17.1656 19.6174 16.1571C19.7511 15.1629 19.75 13.8858 19.75 12.25H18.75ZM2.25 8.75C2.25 7.08595 2.25106 5.88821 2.37368 4.97617C2.49437 4.07852 2.7245 3.53286 3.12868 3.12868L2.42157 2.42157C1.80063 3.04252 1.51819 3.83438 1.3826 4.84292C1.24894 5.83708 1.25 7.11422 1.25 8.75H2.25ZM8.77607 1.25C7.13155 1.25 5.84806 1.24895 4.84974 1.38256C3.83741 1.51805 3.04291 1.80024 2.42157 2.42157L3.12868 3.12868C3.53247 2.72489 4.07984 2.49452 4.98239 2.37372C5.89895 2.25105 7.10337 2.25 8.77607 2.25V1.25ZM15.667 10.5626C15.6946 10.5626 15.7223 10.5626 15.75 10.5626V9.56259C15.7222 9.56259 15.6945 9.56259 15.667 9.5626L15.667 10.5626ZM13.1082 10.4663C13.8325 10.5637 14.7188 10.5627 15.667 10.5626L15.667 9.5626C14.6953 9.56267 13.8848 9.56175 13.2415 9.47526L13.1082 10.4663ZM10.7341 9.39102C11.4475 10.1044 12.3119 10.3593 13.1082 10.4663L13.2415 9.47526C12.5553 9.38301 11.9375 9.18022 11.4412 8.68391L10.7341 9.39102ZM9.65875 7.01689C9.76581 7.81319 10.0207 8.6776 10.7341 9.39102L11.4412 8.68391C10.9449 8.18761 10.7421 7.56979 10.6498 6.88364L9.65875 7.01689ZM9.56249 4.45806C9.56242 5.40633 9.56137 6.29257 9.65875 7.01689L10.6498 6.88364C10.5633 6.2403 10.5624 5.4298 10.5625 4.45814L9.56249 4.45806ZM9.57058 1.97637L9.5625 4.45647L10.5625 4.45973L10.5706 1.97962L9.57058 1.97637ZM15.75 10.5626H19.2127V9.56259H15.75V10.5626ZM19.75 11.8675C19.75 11.1115 19.7504 10.5147 19.7112 10.0229L18.7143 10.1023C18.7496 10.5454 18.75 11.0961 18.75 11.8675H19.75ZM9.59569 1.68162C9.57943 1.77824 9.57092 1.87677 9.57058 1.97631L10.5706 1.97968C10.5707 1.93496 10.5745 1.89079 10.5818 1.84754L9.59569 1.68162ZM8.77607 2.25C9.30987 2.25 9.72327 2.25009 10.0684 2.26416L10.1091 1.26499C9.73917 1.24991 9.30277 1.25 8.77607 1.25V2.25ZM15.667 10.5626L15.75 10.5626L15.75 9.56259L15.667 9.5626L15.667 10.5626Z" fill="black"/>
<path d="M7.88634 16.6663C7.63391 16.9029 7.2411 16.9029 6.98867 16.6663L5.23867 15.0256C4.97425 14.7777 4.96086 14.3624 5.20874 14.098C5.45663 13.8336 5.87193 13.8202 6.13634 14.0681L6.78125 14.6727V11.8125C6.78125 11.4501 7.07506 11.1562 7.4375 11.1562C7.79994 11.1562 8.09375 11.4501 8.09375 11.8125L8.09375 14.6727L8.73867 14.0681C9.00308 13.8202 9.41838 13.8336 9.66626 14.098C9.91415 14.3624 9.90075 14.7777 9.63634 15.0256L7.88634 16.6663Z" fill="black"/>
<path d="M10.0706 1.97759L10.0625 4.45769C10.0624 5.41765 10.0624 6.26603 10.1543 6.94985C10.254 7.69108 10.4828 8.4322 11.0876 9.03706C11.6925 9.64192 12.4336 9.87074 13.1748 9.97039C13.8587 10.0623 14.707 10.0623 15.667 10.0622L19.2127 10.0622C19.2236 10.1983 19.2313 10.3434 19.2367 10.4996H19.25C19.25 10.2655 19.25 10.1485 19.2413 10.0107C19.1919 9.22798 18.8665 8.33109 18.4026 7.69871C18.3209 7.58739 18.2651 7.52056 18.1534 7.38691C17.4599 6.55689 16.5471 5.52293 15.75 4.81209C15.0405 4.17939 14.0688 3.48719 13.2214 2.92118C12.4933 2.4349 12.1293 2.19176 11.6301 2.01105C11.4978 1.96314 11.3232 1.91022 11.1865 1.87658C10.8505 1.79387 10.5235 1.7651 10.0625 1.75513L10.0706 1.97759Z" fill="black"/>
</svg>
